<svg xmlns="http://www.w3.org/2000/svg" width="392" height="392" viewBox="0 0 392 392">
<rect width="100%" height="100%" fill="#ffffff"/>
<rect x="28" y="28" width="42" height="42" fill="#fafafa" stroke="#d6d6d6"/>
<rect x="70" y="28" width="42" height="42" fill="#fafafa" stroke="#d6d6d6"/>
<rect x="112" y="28" width="42" height="42" fill="#fafafa" stroke="#d6d6d6"/>
<rect x="154" y="28" width="42" height="42" fill="#fafafa" stroke="#d6d6d6"/>
<rect x="196" y="28" width="42" height="42" fill="#fafafa" stroke="#d6d6d6"/>
<rect x="238" y="28" width="42" height="42" fill="#fafafa" stroke="#d6d6d6"/>
<rect x="280" y="28" width="42" height="42" fill="#fafafa" stroke="#d6d6d6"/>
<rect x="322" y="28" width="42" height="42" fill="#fafafa" stroke="#d6d6d6"/>
<rect x="28" y="70" width="42" height="42" fill="#fafafa" stroke="#d6d6d6"/>
<rect x="70" y="70" width="42" height="42" fill="#fafafa" stroke="#d6d6d6"/>
<rect x="112" y="70" width="42" height="42" fill="#fafafa" stroke="#d6d6d6"/>
<rect x="154" y="70" width="42" height="42" fill="#fafafa" stroke="#d6d6d6"/>
<rect x="196" y="70" width="42" height="42" fill="#fafafa" stroke="#d6d6d6"/>
<rect x="238" y="70" width="42" height="42" fill="#fafafa" stroke="#d6d6d6"/>
<rect x="280" y="70" width="42" height="42" fill="#fafafa" stroke="#d6d6d6"/>
<rect x="322" y="70" width="42" height="42" fill="#fafafa" stroke="#d6d6d6"/>
<rect x="28" y="112" width="42" height="42" fill="#fafafa" stroke="#d6d6d6"/>
<rect x="70" y="112" width="42" height="42" fill="#fafafa" stroke="#d6d6d6"/>
<rect x="112" y="112" width="42" height="42" fill="#fafafa" stroke="#d6d6d6"/>
<rect x="154" y="112" width="42" height="42" fill="#fafafa" stroke="#d6d6d6"/>
<rect x="196" y="112" width="42" height="42" fill="#fafafa" stroke="#d6d6d6"/>
<rect x="238" y="112" width="42" height="42" fill="#fafafa" stroke="#d6d6d6"/>
<rect x="280" y="112" width="42" height="42" fill="#fafafa" stroke="#d6d6d6"/>
<rect x="322" y="112" width="42" height="42" fill="#fafafa" stroke="#d6d6d6"/>
<rect x="28" y="154" width="42" height="42" fill="#fafafa" stroke="#d6d6d6"/>
<rect x="70" y="154" width="42" height="42" fill="#fafafa" stroke="#d6d6d6"/>
<rect x="112" y="154" width="42" height="42" fill="#fafafa" stroke="#d6d6d6"/>
<rect x="154" y="154" width="42" height="42" fill="#fafafa" stroke="#d6d6d6"/>
<rect x="196" y="154" width="42" height="42" fill="#fafafa" stroke="#d6d6d6"/>
<rect x="238" y="154" width="42" height="42" fill="#fafafa" stroke="#d6d6d6"/>
<rect x="280" y="154" width="42" height="42" fill="#fafafa" stroke="#d6d6d6"/>
<rect x="322" y="154" width="42" height="42" fill="#fafafa" stroke="#d6d6d6"/>
<rect x="28" y="196" width="42" height="42" fill="#fafafa" stroke="#d6d6d6"/>
<rect x="70" y="196" width="42" height="42" fill="#fafafa" stroke="#d6d6d6"/>
<rect x="112" y="196" width="42" height="42" fill="#fafafa" stroke="#d6d6d6"/>
<rect x="154" y="196" width="42" height="42" fill="#fafafa" stroke="#d6d6d6"/>
<rect x="196" y="196" width="42" height="42" fill="#fafafa" stroke="#d6d6d6"/>
<rect x="238" y="196" width="42" height="42" fill="#fafafa" stroke="#d6d6d6"/>
<rect x="280" y="196" width="42" height="42" fill="#fafafa" stroke="#d6d6d6"/>
<rect x="322" y="196" width="42" height="42" fill="#fafafa" stroke="#d6d6d6"/>
<rect x="28" y="238" width="42" height="42" fill="#fafafa" stroke="#d6d6d6"/>
<rect x="70" y="238" width="42" height="42" fill="#fafafa" stroke="#d6d6d6"/>
<rect x="112" y="238" width="42" height="42" fill="#fafafa" stroke="#d6d6d6"/>
<rect x="154" y="238" width="42" height="42" fill="#fafafa" stroke="#d6d6d6"/>
<rect x="196" y="238" width="42" height="42" fill="#fafafa" stroke="#d6d6d6"/>
<rect x="238" y="238" width="42" height="42" fill="#fafafa" stroke="#d6d6d6"/>
<rect x="280" y="238" width="42" height="42" fill="#fafafa" stroke="#d6d6d6"/>
<rect x="322" y="238" width="42" height="42" fill="#fafafa" stroke="#d6d6d6"/>
<rect x="28" y="280" width="42" height="42" fill="#fafafa" stroke="#d6d6d6"/>
<rect x="70" y="280" width="42" height="42" fill="#fafafa" stroke="#d6d6d6"/>
<rect x="112" y="280" width="42" height="42" fill="#fafafa" stroke="#d6d6d6"/>
<rect x="154" y="280" width="42" height="42" fill="#fafafa" stroke="#d6d6d6"/>
<rect x="196" y="280" width="42" height="42" fill="#fafafa" stroke="#d6d6d6"/>
<rect x="238" y="280" width="42" height="42" fill="#fafafa" stroke="#d6d6d6"/>
<rect x="280" y="280" width="42" height="42" fill="#fafafa" stroke="#d6d6d6"/>
<rect x="322" y="280" width="42" height="42" fill="#fafafa" stroke="#d6d6d6"/>
<rect x="28" y="322" width="42" height="42" fill="#fafafa" stroke="#d6d6d6"/>
<rect x="70" y="322" width="42" height="42" fill="#fafafa" stroke="#d6d6d6"/>
<rect x="112" y="322" width="42" height="42" fill="#fafafa" stroke="#d6d6d6"/>
<rect x="154" y="322" width="42" height="42" fill="#fafafa" stroke="#d6d6d6"/>
<rect x="196" y="322" width="42" height="42" fill="#fafafa" stroke="#d6d6d6"/>
<rect x="238" y="322" width="42" height="42" fill="#fafafa" stroke="#d6d6d6"/>
<rect x="280" y="322" width="42" height="42" fill="#fafafa" stroke="#d6d6d6"/>
<rect x="322" y="322" width="42" height="42" fill="#fafafa" stroke="#d6d6d6"/>
<rect x="116" y="116" width="34" height="34" fill="#6c757d"/>
<rect x="158" y="326" width="34" height="34" fill="#6c757d"/>
<circle cx="91.0" cy="259.0" r="7.0" fill="#2ca02c" opacity="0.65"/>
<circle cx="91.0" cy="301.0" r="7.0" fill="#2ca02c" opacity="0.65"/>
<circle cx="133.0" cy="49.0" r="7.0" fill="#2ca02c" opacity="0.65"/>
<circle cx="133.0" cy="175.0" r="7.0" fill="#2ca02c" opacity="0.65"/>
<circle cx="175.0" cy="133.0" r="7.0" fill="#2ca02c" opacity="0.65"/>
<circle cx="175.0" cy="217.0" r="7.0" fill="#2ca02c" opacity="0.65"/>
<circle cx="175.0" cy="259.0" r="7.0" fill="#2ca02c" opacity="0.65"/>
<circle cx="217.0" cy="259.0" r="7.0" fill="#2ca02c" opacity="0.65"/>
<circle cx="259.0" cy="217.0" r="7.0" fill="#2ca02c" opacity="0.65"/>
<circle cx="301.0" cy="175.0" r="7.0" fill="#2ca02c" opacity="0.65"/>
<circle cx="301.0" cy="343.0" r="7.0" fill="#2ca02c" opacity="0.65"/>
<circle cx="343.0" cy="133.0" r="7.0" fill="#2ca02c" opacity="0.65"/>
<polyline points="49.0,49.0 91.0,49.0 133.0,49.0 133.0,91.0 133.0,91.0 133.0,91.0 133.0,91.0 175.0,133.0 217.0,175.0 259.0,217.0 301.0,175.0 343.0,133.0 301.0,175.0 259.0,217.0 217.0,259.0 175.0,259.0 133.0,259.0 91.0,259.0 91.0,301.0" fill="none" stroke="#1f77b4" stroke-width="4" stroke-linecap="round" stroke-linejoin="round" opacity="0.85"/>
<circle cx="49.0" cy="49.0" r="8.4" fill="#1f77b4"/>
<circle cx="91.0" cy="301.0" r="9.333333333333334" fill="#1f77b4" opacity="0.45"/>
<polyline points="343.0,343.0 301.0,343.0 259.0,301.0 217.0,259.0 175.0,259.0 175.0,217.0 133.0,175.0 175.0,133.0 217.0,175.0 259.0,217.0 301.0,175.0 343.0,133.0 301.0,175.0 259.0,217.0 217.0,259.0 175.0,259.0 133.0,259.0 91.0,259.0 91.0,301.0" fill="none" stroke="#d62728" stroke-width="4" stroke-linecap="round" stroke-linejoin="round" opacity="0.85"/>
<circle cx="343.0" cy="343.0" r="8.4" fill="#d62728"/>
<circle cx="91.0" cy="301.0" r="9.333333333333334" fill="#d62728" opacity="0.45"/>
</svg>