<svg xmlns="http://www.w3.org/2000/svg" width="698" height="490" viewBox="0 0 698 490">
<title>same_model_no_runtime_events - epoch 031</title>
<rect width="100%" height="100%" fill="#ffffff"/>
<text x="72" y="34" font-family="Arial" font-size="22" font-weight="bold" fill="#111111">same_model_no_runtime_events - epoch 031</text>
<text x="240.0" y="472" text-anchor="middle" font-family="Arial" font-size="14" fill="#333333">x position</text>
<text x="22" y="240.0" font-family="Arial" font-size="14" fill="#333333" transform="rotate(-90 22 240.0)">y position</text>
<rect x="72" y="72" width="42" height="42" fill="#fafafa" stroke="#d6d6d6"/>
<rect x="114" y="72" width="42" height="42" fill="#fafafa" stroke="#d6d6d6"/>
<rect x="156" y="72" width="42" height="42" fill="#fafafa" stroke="#d6d6d6"/>
<rect x="198" y="72" width="42" height="42" fill="#fafafa" stroke="#d6d6d6"/>
<rect x="240" y="72" width="42" height="42" fill="#fafafa" stroke="#d6d6d6"/>
<rect x="282" y="72" width="42" height="42" fill="#fafafa" stroke="#d6d6d6"/>
<rect x="324" y="72" width="42" height="42" fill="#fafafa" stroke="#d6d6d6"/>
<rect x="366" y="72" width="42" height="42" fill="#fafafa" stroke="#d6d6d6"/>
<text x="58" y="98.0" text-anchor="end" font-family="Arial" font-size="12" fill="#555555">0</text>
<rect x="72" y="114" width="42" height="42" fill="#fafafa" stroke="#d6d6d6"/>
<rect x="114" y="114" width="42" height="42" fill="#fafafa" stroke="#d6d6d6"/>
<rect x="156" y="114" width="42" height="42" fill="#fafafa" stroke="#d6d6d6"/>
<rect x="198" y="114" width="42" height="42" fill="#fafafa" stroke="#d6d6d6"/>
<rect x="240" y="114" width="42" height="42" fill="#fafafa" stroke="#d6d6d6"/>
<rect x="282" y="114" width="42" height="42" fill="#fafafa" stroke="#d6d6d6"/>
<rect x="324" y="114" width="42" height="42" fill="#fafafa" stroke="#d6d6d6"/>
<rect x="366" y="114" width="42" height="42" fill="#fafafa" stroke="#d6d6d6"/>
<text x="58" y="140.0" text-anchor="end" font-family="Arial" font-size="12" fill="#555555">1</text>
<rect x="72" y="156" width="42" height="42" fill="#fafafa" stroke="#d6d6d6"/>
<rect x="114" y="156" width="42" height="42" fill="#fafafa" stroke="#d6d6d6"/>
<rect x="156" y="156" width="42" height="42" fill="#fafafa" stroke="#d6d6d6"/>
<rect x="198" y="156" width="42" height="42" fill="#fafafa" stroke="#d6d6d6"/>
<rect x="240" y="156" width="42" height="42" fill="#fafafa" stroke="#d6d6d6"/>
<rect x="282" y="156" width="42" height="42" fill="#fafafa" stroke="#d6d6d6"/>
<rect x="324" y="156" width="42" height="42" fill="#fafafa" stroke="#d6d6d6"/>
<rect x="366" y="156" width="42" height="42" fill="#fafafa" stroke="#d6d6d6"/>
<text x="58" y="182.0" text-anchor="end" font-family="Arial" font-size="12" fill="#555555">2</text>
<rect x="72" y="198" width="42" height="42" fill="#fafafa" stroke="#d6d6d6"/>
<rect x="114" y="198" width="42" height="42" fill="#fafafa" stroke="#d6d6d6"/>
<rect x="156" y="198" width="42" height="42" fill="#fafafa" stroke="#d6d6d6"/>
<rect x="198" y="198" width="42" height="42" fill="#fafafa" stroke="#d6d6d6"/>
<rect x="240" y="198" width="42" height="42" fill="#fafafa" stroke="#d6d6d6"/>
<rect x="282" y="198" width="42" height="42" fill="#fafafa" stroke="#d6d6d6"/>
<rect x="324" y="198" width="42" height="42" fill="#fafafa" stroke="#d6d6d6"/>
<rect x="366" y="198" width="42" height="42" fill="#fafafa" stroke="#d6d6d6"/>
<text x="58" y="224.0" text-anchor="end" font-family="Arial" font-size="12" fill="#555555">3</text>
<rect x="72" y="240" width="42" height="42" fill="#fafafa" stroke="#d6d6d6"/>
<rect x="114" y="240" width="42" height="42" fill="#fafafa" stroke="#d6d6d6"/>
<rect x="156" y="240" width="42" height="42" fill="#fafafa" stroke="#d6d6d6"/>
<rect x="198" y="240" width="42" height="42" fill="#fafafa" stroke="#d6d6d6"/>
<rect x="240" y="240" width="42" height="42" fill="#fafafa" stroke="#d6d6d6"/>
<rect x="282" y="240" width="42" height="42" fill="#fafafa" stroke="#d6d6d6"/>
<rect x="324" y="240" width="42" height="42" fill="#fafafa" stroke="#d6d6d6"/>
<rect x="366" y="240" width="42" height="42" fill="#fafafa" stroke="#d6d6d6"/>
<text x="58" y="266.0" text-anchor="end" font-family="Arial" font-size="12" fill="#555555">4</text>
<rect x="72" y="282" width="42" height="42" fill="#fafafa" stroke="#d6d6d6"/>
<rect x="114" y="282" width="42" height="42" fill="#fafafa" stroke="#d6d6d6"/>
<rect x="156" y="282" width="42" height="42" fill="#fafafa" stroke="#d6d6d6"/>
<rect x="198" y="282" width="42" height="42" fill="#fafafa" stroke="#d6d6d6"/>
<rect x="240" y="282" width="42" height="42" fill="#fafafa" stroke="#d6d6d6"/>
<rect x="282" y="282" width="42" height="42" fill="#fafafa" stroke="#d6d6d6"/>
<rect x="324" y="282" width="42" height="42" fill="#fafafa" stroke="#d6d6d6"/>
<rect x="366" y="282" width="42" height="42" fill="#fafafa" stroke="#d6d6d6"/>
<text x="58" y="308.0" text-anchor="end" font-family="Arial" font-size="12" fill="#555555">5</text>
<rect x="72" y="324" width="42" height="42" fill="#fafafa" stroke="#d6d6d6"/>
<rect x="114" y="324" width="42" height="42" fill="#fafafa" stroke="#d6d6d6"/>
<rect x="156" y="324" width="42" height="42" fill="#fafafa" stroke="#d6d6d6"/>
<rect x="198" y="324" width="42" height="42" fill="#fafafa" stroke="#d6d6d6"/>
<rect x="240" y="324" width="42" height="42" fill="#fafafa" stroke="#d6d6d6"/>
<rect x="282" y="324" width="42" height="42" fill="#fafafa" stroke="#d6d6d6"/>
<rect x="324" y="324" width="42" height="42" fill="#fafafa" stroke="#d6d6d6"/>
<rect x="366" y="324" width="42" height="42" fill="#fafafa" stroke="#d6d6d6"/>
<text x="58" y="350.0" text-anchor="end" font-family="Arial" font-size="12" fill="#555555">6</text>
<rect x="72" y="366" width="42" height="42" fill="#fafafa" stroke="#d6d6d6"/>
<rect x="114" y="366" width="42" height="42" fill="#fafafa" stroke="#d6d6d6"/>
<rect x="156" y="366" width="42" height="42" fill="#fafafa" stroke="#d6d6d6"/>
<rect x="198" y="366" width="42" height="42" fill="#fafafa" stroke="#d6d6d6"/>
<rect x="240" y="366" width="42" height="42" fill="#fafafa" stroke="#d6d6d6"/>
<rect x="282" y="366" width="42" height="42" fill="#fafafa" stroke="#d6d6d6"/>
<rect x="324" y="366" width="42" height="42" fill="#fafafa" stroke="#d6d6d6"/>
<rect x="366" y="366" width="42" height="42" fill="#fafafa" stroke="#d6d6d6"/>
<text x="58" y="392.0" text-anchor="end" font-family="Arial" font-size="12" fill="#555555">7</text>
<text x="93.0" y="430" text-anchor="middle" font-family="Arial" font-size="12" fill="#555555">0</text>
<text x="135.0" y="430" text-anchor="middle" font-family="Arial" font-size="12" fill="#555555">1</text>
<text x="177.0" y="430" text-anchor="middle" font-family="Arial" font-size="12" fill="#555555">2</text>
<text x="219.0" y="430" text-anchor="middle" font-family="Arial" font-size="12" fill="#555555">3</text>
<text x="261.0" y="430" text-anchor="middle" font-family="Arial" font-size="12" fill="#555555">4</text>
<text x="303.0" y="430" text-anchor="middle" font-family="Arial" font-size="12" fill="#555555">5</text>
<text x="345.0" y="430" text-anchor="middle" font-family="Arial" font-size="12" fill="#555555">6</text>
<text x="387.0" y="430" text-anchor="middle" font-family="Arial" font-size="12" fill="#555555">7</text>
<rect x="202" y="370" width="34" height="34" fill="#6c757d"/>
<rect x="244" y="118" width="34" height="34" fill="#6c757d"/>
<circle cx="93.0" cy="303.0" r="7.0" fill="#2ca02c" opacity="0.65"/>
<circle cx="93.0" cy="345.0" r="7.0" fill="#2ca02c" opacity="0.65"/>
<circle cx="135.0" cy="93.0" r="7.0" fill="#2ca02c" opacity="0.65"/>
<circle cx="219.0" cy="93.0" r="7.0" fill="#2ca02c" opacity="0.65"/>
<circle cx="219.0" cy="261.0" r="7.0" fill="#2ca02c" opacity="0.65"/>
<circle cx="303.0" cy="177.0" r="7.0" fill="#2ca02c" opacity="0.65"/>
<circle cx="303.0" cy="261.0" r="7.0" fill="#2ca02c" opacity="0.65"/>
<circle cx="303.0" cy="387.0" r="7.0" fill="#2ca02c" opacity="0.65"/>
<circle cx="345.0" cy="177.0" r="7.0" fill="#2ca02c" opacity="0.65"/>
<circle cx="345.0" cy="303.0" r="7.0" fill="#2ca02c" opacity="0.65"/>
<circle cx="345.0" cy="387.0" r="7.0" fill="#2ca02c" opacity="0.65"/>
<circle cx="387.0" cy="303.0" r="7.0" fill="#2ca02c" opacity="0.65"/>
<polyline points="93.0,93.0 135.0,93.0 177.0,135.0 219.0,93.0 261.0,93.0 303.0,135.0 303.0,177.0 261.0,219.0 219.0,261.0 177.0,219.0 135.0,261.0 93.0,303.0 93.0,345.0" fill="none" stroke="#1f77b4" stroke-width="4" stroke-linecap="round" stroke-linejoin="round" opacity="0.85"/>
<circle cx="93.0" cy="93.0" r="8.4" fill="#1f77b4"/>
<circle cx="93.0" cy="345.0" r="9.333333333333334" fill="#1f77b4" opacity="0.45"/>
<polyline points="387.0,387.0 345.0,387.0 303.0,387.0 345.0,345.0 345.0,303.0 303.0,261.0 345.0,261.0 387.0,303.0 345.0,261.0 303.0,219.0 345.0,177.0 303.0,135.0 261.0,177.0" fill="none" stroke="#d62728" stroke-width="4" stroke-linecap="round" stroke-linejoin="round" opacity="0.85"/>
<circle cx="387.0" cy="387.0" r="8.4" fill="#d62728"/>
<circle cx="261.0" cy="177.0" r="9.333333333333334" fill="#d62728" opacity="0.45"/>
<text x="436" y="72" font-family="Arial" font-size="16" font-weight="bold" fill="#111111">Legend</text>
<circle cx="446" cy="100" r="7" fill="#2ca02c" opacity="0.65"/>
<text x="464" y="105" font-family="Arial" font-size="13" fill="#333333">Resource</text>
<rect x="439" y="116" width="14" height="14" fill="#6c757d"/>
<text x="464" y="129" font-family="Arial" font-size="13" fill="#333333">Obstacle</text>
<circle cx="446" cy="152" r="8" fill="#111111"/>
<text x="464" y="157" font-family="Arial" font-size="13" fill="#333333">Solid marker = start</text>
<circle cx="446" cy="176" r="8" fill="#111111" opacity="0.45"/>
<text x="464" y="181" font-family="Arial" font-size="13" fill="#333333">Translucent marker = end</text>
<text x="436" y="212" font-family="Arial" font-size="16" font-weight="bold" fill="#111111">Agents</text>
<line x1="436" y1="238" x2="454" y2="238" stroke="#1f77b4" stroke-width="4" stroke-linecap="round"/>
<text x="464" y="243" font-family="Arial" font-size="13" fill="#333333">agent_a (openai:gpt-5.4-nano)</text>
<line x1="436" y1="266" x2="454" y2="266" stroke="#d62728" stroke-width="4" stroke-linecap="round"/>
<text x="464" y="271" font-family="Arial" font-size="13" fill="#333333">agent_b (openai:gpt-5.4-nano)</text>
</svg>