<svg xmlns="http://www.w3.org/2000/svg" width="980" height="420" viewBox="0 0 980 420">
<title>transfer_resource_collection_denial scores</title>
<rect width="100%" height="100%" fill="#ffffff"/>
<text x="72" y="34" font-family="Arial" font-size="22" font-weight="bold" fill="#111111">transfer_resource_collection_denial scores</text>
<line x1="72" y1="348" x2="720" y2="348" stroke="#444444"/>
<line x1="72" y1="68" x2="72" y2="348" stroke="#444444"/>
<text x="396.0" y="400" text-anchor="middle" font-family="Arial" font-size="14" fill="#333333">Epoch</text>
<text x="24" y="208.0" font-family="Arial" font-size="14" fill="#333333" transform="rotate(-90 24 208.0)">Score</text>
<line x1="72.0" y1="348" x2="72.0" y2="354" stroke="#666666"/>
<text x="72.0" y="370" text-anchor="middle" font-family="Arial" font-size="12" fill="#555555">1</text>
<line x1="202.9090909090909" y1="348" x2="202.9090909090909" y2="354" stroke="#666666"/>
<text x="202.9090909090909" y="370" text-anchor="middle" font-family="Arial" font-size="12" fill="#555555">21</text>
<line x1="333.8181818181818" y1="348" x2="333.8181818181818" y2="354" stroke="#666666"/>
<text x="333.8181818181818" y="370" text-anchor="middle" font-family="Arial" font-size="12" fill="#555555">41</text>
<line x1="458.18181818181813" y1="348" x2="458.18181818181813" y2="354" stroke="#666666"/>
<text x="458.18181818181813" y="370" text-anchor="middle" font-family="Arial" font-size="12" fill="#555555">60</text>
<line x1="589.0909090909091" y1="348" x2="589.0909090909091" y2="354" stroke="#666666"/>
<text x="589.0909090909091" y="370" text-anchor="middle" font-family="Arial" font-size="12" fill="#555555">80</text>
<line x1="720.0" y1="348" x2="720.0" y2="354" stroke="#666666"/>
<text x="720.0" y="370" text-anchor="middle" font-family="Arial" font-size="12" fill="#555555">100</text>
<line x1="66" y1="348.0" x2="72" y2="348.0" stroke="#666666"/>
<line x1="72" y1="348.0" x2="720" y2="348.0" stroke="#e6e6e6"/>
<text x="62" y="352.0" text-anchor="end" font-family="Arial" font-size="12" fill="#555555">0.0</text>
<line x1="66" y1="292.0" x2="72" y2="292.0" stroke="#666666"/>
<line x1="72" y1="292.0" x2="720" y2="292.0" stroke="#e6e6e6"/>
<text x="62" y="296.0" text-anchor="end" font-family="Arial" font-size="12" fill="#555555">2.4</text>
<line x1="66" y1="236.0" x2="72" y2="236.0" stroke="#666666"/>
<line x1="72" y1="236.0" x2="720" y2="236.0" stroke="#e6e6e6"/>
<text x="62" y="240.0" text-anchor="end" font-family="Arial" font-size="12" fill="#555555">4.8</text>
<line x1="66" y1="180.0" x2="72" y2="180.0" stroke="#666666"/>
<line x1="72" y1="180.0" x2="720" y2="180.0" stroke="#e6e6e6"/>
<text x="62" y="184.0" text-anchor="end" font-family="Arial" font-size="12" fill="#555555">7.2</text>
<line x1="66" y1="124.00000000000003" x2="72" y2="124.00000000000003" stroke="#666666"/>
<line x1="72" y1="124.00000000000003" x2="720" y2="124.00000000000003" stroke="#e6e6e6"/>
<text x="62" y="128.00000000000003" text-anchor="end" font-family="Arial" font-size="12" fill="#555555">9.6</text>
<line x1="66" y1="68.0" x2="72" y2="68.0" stroke="#666666"/>
<line x1="72" y1="68.0" x2="720" y2="68.0" stroke="#e6e6e6"/>
<text x="62" y="72.0" text-anchor="end" font-family="Arial" font-size="12" fill="#555555">12.0</text>
<polyline points="72.0,208.0 78.54545454545455,161.33333333333334 85.0909090909091,114.66666666666666 91.63636363636364,348.0 98.18181818181819,196.33333333333334 104.72727272727272,138.0 111.27272727272728,138.0 117.81818181818181,196.33333333333334 124.36363636363637,254.66666666666669 130.9090909090909,126.33333333333334 137.45454545454544,114.66666666666666 144.0,231.33333333333331 150.54545454545456,348.0 157.0909090909091,324.6666666666667 163.63636363636363,91.33333333333337 170.1818181818182,208.0 176.72727272727275,266.3333333333333 183.27272727272725,208.0 189.8181818181818,68.0 196.36363636363637,161.33333333333334 202.9090909090909,208.0 209.45454545454547,184.66666666666666 216.0,68.0 222.54545454545453,208.0 229.0909090909091,196.33333333333334 235.63636363636365,231.33333333333331 242.1818181818182,91.33333333333337 248.72727272727272,208.0 255.27272727272725,114.66666666666666 261.8181818181818,91.33333333333337 268.3636363636364,91.33333333333337 274.90909090909093,184.66666666666666 281.4545454545455,91.33333333333337 288.0,184.66666666666666 294.5454545454545,114.66666666666666 301.0909090909091,91.33333333333337 307.6363636363636,208.0 314.1818181818182,196.33333333333334 320.72727272727275,114.66666666666666 327.27272727272725,348.0 333.8181818181818,348.0 340.3636363636364,348.0 346.90909090909093,68.0 353.4545454545455,184.66666666666666 360.0,231.33333333333331 366.54545454545456,231.33333333333331 373.09090909090907,68.0 379.6363636363636,173.0 386.1818181818182,208.0 392.72727272727275,208.0 399.2727272727273,114.66666666666666 405.8181818181818,231.33333333333331 412.3636363636364,173.0 418.90909090909093,208.0 425.45454545454544,91.33333333333337 432.0,184.66666666666666 438.5454545454545,208.0 445.0909090909091,219.66666666666669 451.6363636363636,91.33333333333337 458.18181818181813,114.66666666666666 464.72727272727275,231.33333333333331 471.27272727272725,173.0 477.81818181818187,184.66666666666666 484.3636363636364,161.33333333333334 490.90909090909093,196.33333333333334 497.45454545454544,208.0 504.0,138.0 510.54545454545456,161.33333333333334 517.090909090909,231.33333333333331 523.6363636363637,208.0 530.1818181818182,68.0 536.7272727272727,184.66666666666666 543.2727272727273,278.0 549.8181818181818,196.33333333333334 556.3636363636364,68.0 562.9090909090909,324.6666666666667 569.4545454545455,138.0 576.0,138.0 582.5454545454545,278.0 589.0909090909091,161.33333333333334 595.6363636363636,254.66666666666669 602.1818181818182,231.33333333333331 608.7272727272727,114.66666666666666 615.2727272727273,184.66666666666666 621.8181818181819,196.33333333333334 628.3636363636364,208.0 634.909090909091,68.0 641.4545454545455,254.66666666666669 648.0,231.33333333333331 654.5454545454545,103.0 661.0909090909091,91.33333333333337 667.6363636363636,184.66666666666666 674.1818181818181,231.33333333333331 680.7272727272727,161.33333333333334 687.2727272727273,91.33333333333337 693.8181818181818,219.66666666666669 700.3636363636364,254.66666666666669 706.9090909090909,196.33333333333334 713.4545454545455,91.33333333333337 720.0,184.66666666666666" fill="none" stroke="#1f77b4" stroke-width="3" stroke-linecap="round"/>
<line x1="728" y1="68" x2="750" y2="68" stroke="#1f77b4" stroke-width="4" stroke-linecap="round"/>
<text x="760" y="73" font-family="Arial" font-size="14" fill="#1f77b4">agent_a (openai:gpt-5.4-nano)</text>
<polyline points="72.0,208.0 78.54545454545455,254.66666666666669 85.0909090909091,301.3333333333333 91.63636363636364,254.66666666666669 98.18181818181819,219.66666666666669 104.72727272727272,278.0 111.27272727272728,348.0 117.81818181818181,219.66666666666669 124.36363636363637,161.33333333333334 130.9090909090909,289.6666666666667 137.45454545454544,301.3333333333333 144.0,184.66666666666666 150.54545454545456,68.0 157.0909090909091,91.33333333333337 163.63636363636363,324.6666666666667 170.1818181818182,208.0 176.72727272727275,149.66666666666666 183.27272727272725,208.0 189.8181818181818,348.0 196.36363636363637,254.66666666666669 202.9090909090909,208.0 209.45454545454547,231.33333333333331 216.0,348.0 222.54545454545453,208.0 229.0909090909091,219.66666666666669 235.63636363636365,184.66666666666666 242.1818181818182,324.6666666666667 248.72727272727272,208.0 255.27272727272725,301.3333333333333 261.8181818181818,324.6666666666667 268.3636363636364,324.6666666666667 274.90909090909093,231.33333333333331 281.4545454545455,324.6666666666667 288.0,231.33333333333331 294.5454545454545,301.3333333333333 301.0909090909091,324.6666666666667 307.6363636363636,208.0 314.1818181818182,219.66666666666669 320.72727272727275,301.3333333333333 327.27272727272725,301.3333333333333 333.8181818181818,68.0 340.3636363636364,348.0 346.90909090909093,348.0 353.4545454545455,231.33333333333331 360.0,184.66666666666666 366.54545454545456,184.66666666666666 373.09090909090907,348.0 379.6363636363636,243.0 386.1818181818182,208.0 392.72727272727275,208.0 399.2727272727273,301.3333333333333 405.8181818181818,184.66666666666666 412.3636363636364,243.0 418.90909090909093,208.0 425.45454545454544,324.6666666666667 432.0,231.33333333333331 438.5454545454545,208.0 445.0909090909091,196.33333333333334 451.6363636363636,324.6666666666667 458.18181818181813,301.3333333333333 464.72727272727275,184.66666666666666 471.27272727272725,243.0 477.81818181818187,324.6666666666667 484.3636363636364,254.66666666666669 490.90909090909093,219.66666666666669 497.45454545454544,208.0 504.0,324.6666666666667 510.54545454545456,254.66666666666669 517.090909090909,184.66666666666666 523.6363636363637,208.0 530.1818181818182,348.0 536.7272727272727,231.33333333333331 543.2727272727273,138.0 549.8181818181818,219.66666666666669 556.3636363636364,348.0 562.9090909090909,91.33333333333337 569.4545454545455,278.0 576.0,278.0 582.5454545454545,324.6666666666667 589.0909090909091,254.66666666666669 595.6363636363636,161.33333333333334 602.1818181818182,184.66666666666666 608.7272727272727,348.0 615.2727272727273,231.33333333333331 621.8181818181819,219.66666666666669 628.3636363636364,208.0 634.909090909091,348.0 641.4545454545455,161.33333333333334 648.0,184.66666666666666 654.5454545454545,313.0 661.0909090909091,324.6666666666667 667.6363636363636,231.33333333333331 674.1818181818181,184.66666666666666 680.7272727272727,254.66666666666669 687.2727272727273,324.6666666666667 693.8181818181818,196.33333333333334 700.3636363636364,161.33333333333334 706.9090909090909,219.66666666666669 713.4545454545455,324.6666666666667 720.0,231.33333333333331" fill="none" stroke="#d62728" stroke-width="3" stroke-linecap="round"/>
<line x1="728" y1="92" x2="750" y2="92" stroke="#d62728" stroke-width="4" stroke-linecap="round"/>
<text x="760" y="97" font-family="Arial" font-size="14" fill="#d62728">agent_b (curriculum opponent)</text>
</svg>