<svg xmlns="http://www.w3.org/2000/svg" width="980" height="420" viewBox="0 0 980 420">
<title>same_model_full_feedback scores</title>
<rect width="100%" height="100%" fill="#ffffff"/>
<text x="72" y="34" font-family="Arial" font-size="22" font-weight="bold" fill="#111111">same_model_full_feedback scores</text>
<line x1="72" y1="348" x2="720" y2="348" stroke="#444444"/>
<line x1="72" y1="68" x2="72" y2="348" stroke="#444444"/>
<text x="396.0" y="400" text-anchor="middle" font-family="Arial" font-size="14" fill="#333333">Epoch</text>
<text x="24" y="208.0" font-family="Arial" font-size="14" fill="#333333" transform="rotate(-90 24 208.0)">Score</text>
<line x1="72.0" y1="348" x2="72.0" y2="354" stroke="#666666"/>
<text x="72.0" y="370" text-anchor="middle" font-family="Arial" font-size="12" fill="#555555">1</text>
<line x1="216.0" y1="348" x2="216.0" y2="354" stroke="#666666"/>
<text x="216.0" y="370" text-anchor="middle" font-family="Arial" font-size="12" fill="#555555">3</text>
<line x1="360.0" y1="348" x2="360.0" y2="354" stroke="#666666"/>
<text x="360.0" y="370" text-anchor="middle" font-family="Arial" font-size="12" fill="#555555">5</text>
<line x1="432.0" y1="348" x2="432.0" y2="354" stroke="#666666"/>
<text x="432.0" y="370" text-anchor="middle" font-family="Arial" font-size="12" fill="#555555">6</text>
<line x1="576.0" y1="348" x2="576.0" y2="354" stroke="#666666"/>
<text x="576.0" y="370" text-anchor="middle" font-family="Arial" font-size="12" fill="#555555">8</text>
<line x1="720.0" y1="348" x2="720.0" y2="354" stroke="#666666"/>
<text x="720.0" y="370" text-anchor="middle" font-family="Arial" font-size="12" fill="#555555">10</text>
<line x1="66" y1="348.0" x2="72" y2="348.0" stroke="#666666"/>
<line x1="72" y1="348.0" x2="720" y2="348.0" stroke="#e6e6e6"/>
<text x="62" y="352.0" text-anchor="end" font-family="Arial" font-size="12" fill="#555555">0.0</text>
<line x1="66" y1="292.0" x2="72" y2="292.0" stroke="#666666"/>
<line x1="72" y1="292.0" x2="720" y2="292.0" stroke="#e6e6e6"/>
<text x="62" y="296.0" text-anchor="end" font-family="Arial" font-size="12" fill="#555555">2.2</text>
<line x1="66" y1="236.0" x2="72" y2="236.0" stroke="#666666"/>
<line x1="72" y1="236.0" x2="720" y2="236.0" stroke="#e6e6e6"/>
<text x="62" y="240.0" text-anchor="end" font-family="Arial" font-size="12" fill="#555555">4.4</text>
<line x1="66" y1="180.0" x2="72" y2="180.0" stroke="#666666"/>
<line x1="72" y1="180.0" x2="720" y2="180.0" stroke="#e6e6e6"/>
<text x="62" y="184.0" text-anchor="end" font-family="Arial" font-size="12" fill="#555555">6.6</text>
<line x1="66" y1="124.0" x2="72" y2="124.0" stroke="#666666"/>
<line x1="72" y1="124.0" x2="720" y2="124.0" stroke="#e6e6e6"/>
<text x="62" y="128.0" text-anchor="end" font-family="Arial" font-size="12" fill="#555555">8.8</text>
<line x1="66" y1="68.0" x2="72" y2="68.0" stroke="#666666"/>
<line x1="72" y1="68.0" x2="720" y2="68.0" stroke="#e6e6e6"/>
<text x="62" y="72.0" text-anchor="end" font-family="Arial" font-size="12" fill="#555555">11.0</text>
<polyline points="72.0,271.6363636363636 144.0,208.0 216.0,246.1818181818182 288.0,169.8181818181818 360.0,322.54545454545456 432.0,195.27272727272728 504.0,220.72727272727275 576.0,246.1818181818182 648.0,195.27272727272728 720.0,220.72727272727275" fill="none" stroke="#1f77b4" stroke-width="3" stroke-linecap="round"/>
<line x1="728" y1="68" x2="750" y2="68" stroke="#1f77b4" stroke-width="4" stroke-linecap="round"/>
<text x="760" y="73" font-family="Arial" font-size="14" fill="#1f77b4">agent_a (openai:gpt-5.4-nano)</text>
<polyline points="72.0,118.9090909090909 144.0,182.54545454545453 216.0,144.36363636363635 288.0,220.72727272727275 360.0,68.0 432.0,195.27272727272728 504.0,169.8181818181818 576.0,144.36363636363635 648.0,195.27272727272728 720.0,169.8181818181818" fill="none" stroke="#d62728" stroke-width="3" stroke-linecap="round"/>
<line x1="728" y1="92" x2="750" y2="92" stroke="#d62728" stroke-width="4" stroke-linecap="round"/>
<text x="760" y="97" font-family="Arial" font-size="14" fill="#d62728">agent_b (openai:gpt-5.4-nano)</text>
</svg>