<svg xmlns="http://www.w3.org/2000/svg" width="980" height="420" viewBox="0 0 980 420">
<title>rotating_plus_nemesis_novelty_replay scores</title>
<rect width="100%" height="100%" fill="#ffffff"/>
<text x="72" y="34" font-family="Arial" font-size="22" font-weight="bold" fill="#111111">rotating_plus_nemesis_novelty_replay scores</text>
<line x1="72" y1="348" x2="720" y2="348" stroke="#444444"/>
<line x1="72" y1="68" x2="72" y2="348" stroke="#444444"/>
<text x="396.0" y="400" text-anchor="middle" font-family="Arial" font-size="14" fill="#333333">Epoch</text>
<text x="24" y="208.0" font-family="Arial" font-size="14" fill="#333333" transform="rotate(-90 24 208.0)">Score</text>
<line x1="72.0" y1="348" x2="72.0" y2="354" stroke="#666666"/>
<text x="72.0" y="370" text-anchor="middle" font-family="Arial" font-size="12" fill="#555555">1</text>
<line x1="202.9090909090909" y1="348" x2="202.9090909090909" y2="354" stroke="#666666"/>
<text x="202.9090909090909" y="370" text-anchor="middle" font-family="Arial" font-size="12" fill="#555555">21</text>
<line x1="333.8181818181818" y1="348" x2="333.8181818181818" y2="354" stroke="#666666"/>
<text x="333.8181818181818" y="370" text-anchor="middle" font-family="Arial" font-size="12" fill="#555555">41</text>
<line x1="458.18181818181813" y1="348" x2="458.18181818181813" y2="354" stroke="#666666"/>
<text x="458.18181818181813" y="370" text-anchor="middle" font-family="Arial" font-size="12" fill="#555555">60</text>
<line x1="589.0909090909091" y1="348" x2="589.0909090909091" y2="354" stroke="#666666"/>
<text x="589.0909090909091" y="370" text-anchor="middle" font-family="Arial" font-size="12" fill="#555555">80</text>
<line x1="720.0" y1="348" x2="720.0" y2="354" stroke="#666666"/>
<text x="720.0" y="370" text-anchor="middle" font-family="Arial" font-size="12" fill="#555555">100</text>
<line x1="66" y1="348.0" x2="72" y2="348.0" stroke="#666666"/>
<line x1="72" y1="348.0" x2="720" y2="348.0" stroke="#e6e6e6"/>
<text x="62" y="352.0" text-anchor="end" font-family="Arial" font-size="12" fill="#555555">0.0</text>
<line x1="66" y1="292.0" x2="72" y2="292.0" stroke="#666666"/>
<line x1="72" y1="292.0" x2="720" y2="292.0" stroke="#e6e6e6"/>
<text x="62" y="296.0" text-anchor="end" font-family="Arial" font-size="12" fill="#555555">2.4</text>
<line x1="66" y1="236.0" x2="72" y2="236.0" stroke="#666666"/>
<line x1="72" y1="236.0" x2="720" y2="236.0" stroke="#e6e6e6"/>
<text x="62" y="240.0" text-anchor="end" font-family="Arial" font-size="12" fill="#555555">4.8</text>
<line x1="66" y1="180.0" x2="72" y2="180.0" stroke="#666666"/>
<line x1="72" y1="180.0" x2="720" y2="180.0" stroke="#e6e6e6"/>
<text x="62" y="184.0" text-anchor="end" font-family="Arial" font-size="12" fill="#555555">7.2</text>
<line x1="66" y1="124.00000000000003" x2="72" y2="124.00000000000003" stroke="#666666"/>
<line x1="72" y1="124.00000000000003" x2="720" y2="124.00000000000003" stroke="#e6e6e6"/>
<text x="62" y="128.00000000000003" text-anchor="end" font-family="Arial" font-size="12" fill="#555555">9.6</text>
<line x1="66" y1="68.0" x2="72" y2="68.0" stroke="#666666"/>
<line x1="72" y1="68.0" x2="720" y2="68.0" stroke="#e6e6e6"/>
<text x="62" y="72.0" text-anchor="end" font-family="Arial" font-size="12" fill="#555555">12.0</text>
<polyline points="72.0,243.0 78.54545454545455,208.0 85.0909090909091,114.66666666666666 91.63636363636364,348.0 98.18181818181819,138.0 104.72727272727272,231.33333333333331 111.27272727272728,208.0 117.81818181818181,184.66666666666666 124.36363636363637,208.0 130.9090909090909,184.66666666666666 137.45454545454544,184.66666666666666 144.0,324.6666666666667 150.54545454545456,91.33333333333337 157.0909090909091,161.33333333333334 163.63636363636363,289.6666666666667 170.1818181818182,231.33333333333331 176.72727272727275,254.66666666666669 183.27272727272725,138.0 189.8181818181818,208.0 196.36363636363637,161.33333333333334 202.9090909090909,184.66666666666666 209.45454545454547,231.33333333333331 216.0,68.0 222.54545454545453,208.0 229.0909090909091,231.33333333333331 235.63636363636365,208.0 242.1818181818182,184.66666666666666 248.72727272727272,68.0 255.27272727272725,184.66666666666666 261.8181818181818,184.66666666666666 268.3636363636364,184.66666666666666 274.90909090909093,138.0 281.4545454545455,91.33333333333337 288.0,161.33333333333334 294.5454545454545,208.0 301.0909090909091,184.66666666666666 307.6363636363636,324.6666666666667 314.1818181818182,91.33333333333337 320.72727272727275,161.33333333333334 327.27272727272725,219.66666666666669 333.8181818181818,208.0 340.3636363636364,231.33333333333331 346.90909090909093,91.33333333333337 353.4545454545455,184.66666666666666 360.0,254.66666666666669 366.54545454545456,231.33333333333331 373.09090909090907,184.66666666666666 379.6363636363636,68.0 386.1818181818182,161.33333333333334 392.72727272727275,208.0 399.2727272727273,348.0 405.8181818181818,161.33333333333334 412.3636363636364,91.33333333333337 418.90909090909093,208.0 425.45454545454544,208.0 432.0,196.33333333333334 438.5454545454545,68.0 445.0909090909091,114.66666666666666 451.6363636363636,161.33333333333334 458.18181818181813,138.0 464.72727272727275,324.6666666666667 471.27272727272725,208.0 477.81818181818187,114.66666666666666 484.3636363636364,138.0 490.90909090909093,161.33333333333334 497.45454545454544,184.66666666666666 504.0,184.66666666666666 510.54545454545456,161.33333333333334 517.090909090909,208.0 523.6363636363637,254.66666666666669 530.1818181818182,219.66666666666669 536.7272727272727,184.66666666666666 543.2727272727273,91.33333333333337 549.8181818181818,184.66666666666666 556.3636363636364,243.0 562.9090909090909,184.66666666666666 569.4545454545455,208.0 576.0,324.6666666666667 582.5454545454545,161.33333333333334 589.0909090909091,208.0 595.6363636363636,336.3333333333333 602.1818181818182,208.0 608.7272727272727,114.66666666666666 615.2727272727273,231.33333333333331 621.8181818181819,208.0 628.3636363636364,184.66666666666666 634.909090909091,301.3333333333333 641.4545454545455,68.0 648.0,173.0 654.5454545454545,208.0 661.0909090909091,184.66666666666666 667.6363636363636,278.0 674.1818181818181,114.66666666666666 680.7272727272727,196.33333333333334 687.2727272727273,254.66666666666669 693.8181818181818,266.3333333333333 700.3636363636364,68.0 706.9090909090909,278.0 713.4545454545455,219.66666666666669 720.0,208.0" fill="none" stroke="#1f77b4" stroke-width="3" stroke-linecap="round"/>
<line x1="728" y1="68" x2="750" y2="68" stroke="#1f77b4" stroke-width="4" stroke-linecap="round"/>
<text x="760" y="73" font-family="Arial" font-size="14" fill="#1f77b4">agent_a (openai:gpt-5.4-nano)</text>
<polyline points="72.0,173.0 78.54545454545455,208.0 85.0909090909091,301.3333333333333 91.63636363636364,231.33333333333331 98.18181818181819,278.0 104.72727272727272,184.66666666666666 111.27272727272728,208.0 117.81818181818181,324.6666666666667 124.36363636363637,208.0 130.9090909090909,231.33333333333331 137.45454545454544,231.33333333333331 144.0,324.6666666666667 150.54545454545456,324.6666666666667 157.0909090909091,254.66666666666669 163.63636363636363,126.33333333333334 170.1818181818182,184.66666666666666 176.72727272727275,161.33333333333334 183.27272727272725,278.0 189.8181818181818,208.0 196.36363636363637,254.66666666666669 202.9090909090909,231.33333333333331 209.45454545454547,184.66666666666666 216.0,348.0 222.54545454545453,208.0 229.0909090909091,184.66666666666666 235.63636363636365,208.0 242.1818181818182,348.0 248.72727272727272,348.0 255.27272727272725,231.33333333333331 261.8181818181818,231.33333333333331 268.3636363636364,231.33333333333331 274.90909090909093,278.0 281.4545454545455,324.6666666666667 288.0,254.66666666666669 294.5454545454545,208.0 301.0909090909091,231.33333333333331 307.6363636363636,91.33333333333337 314.1818181818182,324.6666666666667 320.72727272727275,278.0 327.27272727272725,196.33333333333334 333.8181818181818,208.0 340.3636363636364,184.66666666666666 346.90909090909093,324.6666666666667 353.4545454545455,231.33333333333331 360.0,161.33333333333334 366.54545454545456,184.66666666666666 373.09090909090907,231.33333333333331 379.6363636363636,348.0 386.1818181818182,254.66666666666669 392.72727272727275,208.0 399.2727272727273,254.66666666666669 405.8181818181818,254.66666666666669 412.3636363636364,324.6666666666667 418.90909090909093,208.0 425.45454545454544,208.0 432.0,219.66666666666669 438.5454545454545,348.0 445.0909090909091,301.3333333333333 451.6363636363636,254.66666666666669 458.18181818181813,278.0 464.72727272727275,91.33333333333337 471.27272727272725,208.0 477.81818181818187,301.3333333333333 484.3636363636364,278.0 490.90909090909093,254.66666666666669 497.45454545454544,231.33333333333331 504.0,231.33333333333331 510.54545454545456,301.3333333333333 517.090909090909,208.0 523.6363636363637,161.33333333333334 530.1818181818182,196.33333333333334 536.7272727272727,231.33333333333331 543.2727272727273,324.6666666666667 549.8181818181818,231.33333333333331 556.3636363636364,173.0 562.9090909090909,231.33333333333331 569.4545454545455,208.0 576.0,324.6666666666667 582.5454545454545,254.66666666666669 589.0909090909091,208.0 595.6363636363636,79.66666666666663 602.1818181818182,208.0 608.7272727272727,301.3333333333333 615.2727272727273,184.66666666666666 621.8181818181819,208.0 628.3636363636364,231.33333333333331 634.909090909091,114.66666666666666 641.4545454545455,348.0 648.0,243.0 654.5454545454545,208.0 661.0909090909091,231.33333333333331 667.6363636363636,138.0 674.1818181818181,301.3333333333333 680.7272727272727,219.66666666666669 687.2727272727273,161.33333333333334 693.8181818181818,173.0 700.3636363636364,348.0 706.9090909090909,278.0 713.4545454545455,196.33333333333334 720.0,208.0" fill="none" stroke="#d62728" stroke-width="3" stroke-linecap="round"/>
<line x1="728" y1="92" x2="750" y2="92" stroke="#d62728" stroke-width="4" stroke-linecap="round"/>
<text x="760" y="97" font-family="Arial" font-size="14" fill="#d62728">agent_b (curriculum opponent)</text>
</svg>