<svg xmlns="http://www.w3.org/2000/svg" width="980" height="420" viewBox="0 0 980 420">
<title>same_model_no_runtime_events scores</title>
<rect width="100%" height="100%" fill="#ffffff"/>
<text x="72" y="34" font-family="Arial" font-size="22" font-weight="bold" fill="#111111">same_model_no_runtime_events scores</text>
<line x1="72" y1="348" x2="720" y2="348" stroke="#444444"/>
<line x1="72" y1="68" x2="72" y2="348" stroke="#444444"/>
<text x="396.0" y="400" text-anchor="middle" font-family="Arial" font-size="14" fill="#333333">Epoch</text>
<text x="24" y="208.0" font-family="Arial" font-size="14" fill="#333333" transform="rotate(-90 24 208.0)">Score</text>
<line x1="72.0" y1="348" x2="72.0" y2="354" stroke="#666666"/>
<text x="72.0" y="370" text-anchor="middle" font-family="Arial" font-size="12" fill="#555555">1</text>
<line x1="202.9090909090909" y1="348" x2="202.9090909090909" y2="354" stroke="#666666"/>
<text x="202.9090909090909" y="370" text-anchor="middle" font-family="Arial" font-size="12" fill="#555555">21</text>
<line x1="333.8181818181818" y1="348" x2="333.8181818181818" y2="354" stroke="#666666"/>
<text x="333.8181818181818" y="370" text-anchor="middle" font-family="Arial" font-size="12" fill="#555555">41</text>
<line x1="458.18181818181813" y1="348" x2="458.18181818181813" y2="354" stroke="#666666"/>
<text x="458.18181818181813" y="370" text-anchor="middle" font-family="Arial" font-size="12" fill="#555555">60</text>
<line x1="589.0909090909091" y1="348" x2="589.0909090909091" y2="354" stroke="#666666"/>
<text x="589.0909090909091" y="370" text-anchor="middle" font-family="Arial" font-size="12" fill="#555555">80</text>
<line x1="720.0" y1="348" x2="720.0" y2="354" stroke="#666666"/>
<text x="720.0" y="370" text-anchor="middle" font-family="Arial" font-size="12" fill="#555555">100</text>
<line x1="66" y1="348.0" x2="72" y2="348.0" stroke="#666666"/>
<line x1="72" y1="348.0" x2="720" y2="348.0" stroke="#e6e6e6"/>
<text x="62" y="352.0" text-anchor="end" font-family="Arial" font-size="12" fill="#555555">0.0</text>
<line x1="66" y1="292.0" x2="72" y2="292.0" stroke="#666666"/>
<line x1="72" y1="292.0" x2="720" y2="292.0" stroke="#e6e6e6"/>
<text x="62" y="296.0" text-anchor="end" font-family="Arial" font-size="12" fill="#555555">2.4</text>
<line x1="66" y1="236.0" x2="72" y2="236.0" stroke="#666666"/>
<line x1="72" y1="236.0" x2="720" y2="236.0" stroke="#e6e6e6"/>
<text x="62" y="240.0" text-anchor="end" font-family="Arial" font-size="12" fill="#555555">4.8</text>
<line x1="66" y1="180.0" x2="72" y2="180.0" stroke="#666666"/>
<line x1="72" y1="180.0" x2="720" y2="180.0" stroke="#e6e6e6"/>
<text x="62" y="184.0" text-anchor="end" font-family="Arial" font-size="12" fill="#555555">7.2</text>
<line x1="66" y1="124.00000000000003" x2="72" y2="124.00000000000003" stroke="#666666"/>
<line x1="72" y1="124.00000000000003" x2="720" y2="124.00000000000003" stroke="#e6e6e6"/>
<text x="62" y="128.00000000000003" text-anchor="end" font-family="Arial" font-size="12" fill="#555555">9.6</text>
<line x1="66" y1="68.0" x2="72" y2="68.0" stroke="#666666"/>
<line x1="72" y1="68.0" x2="720" y2="68.0" stroke="#e6e6e6"/>
<text x="62" y="72.0" text-anchor="end" font-family="Arial" font-size="12" fill="#555555">12.0</text>
<polyline points="72.0,208.0 78.54545454545455,208.0 85.0909090909091,231.33333333333331 91.63636363636364,231.33333333333331 98.18181818181819,231.33333333333331 104.72727272727272,184.66666666666666 111.27272727272728,231.33333333333331 117.81818181818181,324.6666666666667 124.36363636363637,254.66666666666669 130.9090909090909,219.66666666666669 137.45454545454544,161.33333333333334 144.0,231.33333333333331 150.54545454545456,208.0 157.0909090909091,173.0 163.63636363636363,231.33333333333331 170.1818181818182,231.33333333333331 176.72727272727275,231.33333333333331 183.27272727272725,231.33333333333331 189.8181818181818,231.33333333333331 196.36363636363637,208.0 202.9090909090909,184.66666666666666 209.45454545454547,208.0 216.0,208.0 222.54545454545453,173.0 229.0909090909091,184.66666666666666 235.63636363636365,161.33333333333334 242.1818181818182,68.0 248.72727272727272,184.66666666666666 255.27272727272725,231.33333333333331 261.8181818181818,266.3333333333333 268.3636363636364,184.66666666666666 274.90909090909093,184.66666666666666 281.4545454545455,208.0 288.0,231.33333333333331 294.5454545454545,231.33333333333331 301.0909090909091,196.33333333333334 307.6363636363636,149.66666666666666 314.1818181818182,208.0 320.72727272727275,219.66666666666669 327.27272727272725,208.0 333.8181818181818,219.66666666666669 340.3636363636364,231.33333333333331 346.90909090909093,208.0 353.4545454545455,254.66666666666669 360.0,254.66666666666669 366.54545454545456,231.33333333333331 373.09090909090907,219.66666666666669 379.6363636363636,231.33333333333331 386.1818181818182,208.0 392.72727272727275,348.0 399.2727272727273,231.33333333333331 405.8181818181818,219.66666666666669 412.3636363636364,208.0 418.90909090909093,196.33333333333334 425.45454545454544,243.0 432.0,91.33333333333337 438.5454545454545,91.33333333333337 445.0909090909091,208.0 451.6363636363636,219.66666666666669 458.18181818181813,208.0 464.72727272727275,243.0 471.27272727272725,231.33333333333331 477.81818181818187,184.66666666666666 484.3636363636364,231.33333333333331 490.90909090909093,231.33333333333331 497.45454545454544,196.33333333333334 504.0,231.33333333333331 510.54545454545456,231.33333333333331 517.090909090909,231.33333333333331 523.6363636363637,196.33333333333334 530.1818181818182,219.66666666666669 536.7272727272727,184.66666666666666 543.2727272727273,208.0 549.8181818181818,266.3333333333333 556.3636363636364,219.66666666666669 562.9090909090909,231.33333333333331 569.4545454545455,231.33333333333331 576.0,254.66666666666669 582.5454545454545,324.6666666666667 589.0909090909091,138.0 595.6363636363636,208.0 602.1818181818182,278.0 608.7272727272727,208.0 615.2727272727273,208.0 621.8181818181819,184.66666666666666 628.3636363636364,208.0 634.909090909091,161.33333333333334 641.4545454545455,254.66666666666669 648.0,208.0 654.5454545454545,161.33333333333334 661.0909090909091,208.0 667.6363636363636,231.33333333333331 674.1818181818181,208.0 680.7272727272727,219.66666666666669 687.2727272727273,184.66666666666666 693.8181818181818,184.66666666666666 700.3636363636364,184.66666666666666 706.9090909090909,208.0 713.4545454545455,196.33333333333334 720.0,231.33333333333331" fill="none" stroke="#1f77b4" stroke-width="3" stroke-linecap="round"/>
<line x1="728" y1="68" x2="750" y2="68" stroke="#1f77b4" stroke-width="4" stroke-linecap="round"/>
<text x="760" y="73" font-family="Arial" font-size="14" fill="#1f77b4">agent_a (openai:gpt-5.4-nano)</text>
<polyline points="72.0,208.0 78.54545454545455,208.0 85.0909090909091,184.66666666666666 91.63636363636364,184.66666666666666 98.18181818181819,184.66666666666666 104.72727272727272,231.33333333333331 111.27272727272728,184.66666666666666 117.81818181818181,91.33333333333337 124.36363636363637,161.33333333333334 130.9090909090909,196.33333333333334 137.45454545454544,254.66666666666669 144.0,184.66666666666666 150.54545454545456,208.0 157.0909090909091,243.0 163.63636363636363,184.66666666666666 170.1818181818182,184.66666666666666 176.72727272727275,184.66666666666666 183.27272727272725,184.66666666666666 189.8181818181818,184.66666666666666 196.36363636363637,208.0 202.9090909090909,231.33333333333331 209.45454545454547,208.0 216.0,208.0 222.54545454545453,243.0 229.0909090909091,231.33333333333331 235.63636363636365,254.66666666666669 242.1818181818182,348.0 248.72727272727272,231.33333333333331 255.27272727272725,184.66666666666666 261.8181818181818,149.66666666666666 268.3636363636364,231.33333333333331 274.90909090909093,231.33333333333331 281.4545454545455,208.0 288.0,184.66666666666666 294.5454545454545,184.66666666666666 301.0909090909091,219.66666666666669 307.6363636363636,266.3333333333333 314.1818181818182,208.0 320.72727272727275,196.33333333333334 327.27272727272725,208.0 333.8181818181818,196.33333333333334 340.3636363636364,184.66666666666666 346.90909090909093,208.0 353.4545454545455,161.33333333333334 360.0,161.33333333333334 366.54545454545456,184.66666666666666 373.09090909090907,196.33333333333334 379.6363636363636,184.66666666666666 386.1818181818182,208.0 392.72727272727275,68.0 399.2727272727273,184.66666666666666 405.8181818181818,196.33333333333334 412.3636363636364,208.0 418.90909090909093,219.66666666666669 425.45454545454544,173.0 432.0,324.6666666666667 438.5454545454545,324.6666666666667 445.0909090909091,208.0 451.6363636363636,196.33333333333334 458.18181818181813,208.0 464.72727272727275,173.0 471.27272727272725,184.66666666666666 477.81818181818187,231.33333333333331 484.3636363636364,184.66666666666666 490.90909090909093,184.66666666666666 497.45454545454544,219.66666666666669 504.0,184.66666666666666 510.54545454545456,184.66666666666666 517.090909090909,184.66666666666666 523.6363636363637,219.66666666666669 530.1818181818182,196.33333333333334 536.7272727272727,231.33333333333331 543.2727272727273,208.0 549.8181818181818,149.66666666666666 556.3636363636364,196.33333333333334 562.9090909090909,184.66666666666666 569.4545454545455,184.66666666666666 576.0,161.33333333333334 582.5454545454545,91.33333333333337 589.0909090909091,278.0 595.6363636363636,208.0 602.1818181818182,138.0 608.7272727272727,208.0 615.2727272727273,208.0 621.8181818181819,231.33333333333331 628.3636363636364,208.0 634.909090909091,254.66666666666669 641.4545454545455,161.33333333333334 648.0,208.0 654.5454545454545,254.66666666666669 661.0909090909091,208.0 667.6363636363636,184.66666666666666 674.1818181818181,208.0 680.7272727272727,196.33333333333334 687.2727272727273,231.33333333333331 693.8181818181818,231.33333333333331 700.3636363636364,231.33333333333331 706.9090909090909,208.0 713.4545454545455,219.66666666666669 720.0,184.66666666666666" fill="none" stroke="#d62728" stroke-width="3" stroke-linecap="round"/>
<line x1="728" y1="92" x2="750" y2="92" stroke="#d62728" stroke-width="4" stroke-linecap="round"/>
<text x="760" y="97" font-family="Arial" font-size="14" fill="#d62728">agent_b (openai:gpt-5.4-nano)</text>
</svg>