<svg xmlns="http://www.w3.org/2000/svg" width="980" height="420" viewBox="0 0 980 420">
<title>same_model_no_paths scores</title>
<rect width="100%" height="100%" fill="#ffffff"/>
<text x="72" y="34" font-family="Arial" font-size="22" font-weight="bold" fill="#111111">same_model_no_paths scores</text>
<line x1="72" y1="348" x2="720" y2="348" stroke="#444444"/>
<line x1="72" y1="68" x2="72" y2="348" stroke="#444444"/>
<text x="396.0" y="400" text-anchor="middle" font-family="Arial" font-size="14" fill="#333333">Epoch</text>
<text x="24" y="208.0" font-family="Arial" font-size="14" fill="#333333" transform="rotate(-90 24 208.0)">Score</text>
<line x1="72.0" y1="348" x2="72.0" y2="354" stroke="#666666"/>
<text x="72.0" y="370" text-anchor="middle" font-family="Arial" font-size="12" fill="#555555">1</text>
<line x1="202.9090909090909" y1="348" x2="202.9090909090909" y2="354" stroke="#666666"/>
<text x="202.9090909090909" y="370" text-anchor="middle" font-family="Arial" font-size="12" fill="#555555">21</text>
<line x1="333.8181818181818" y1="348" x2="333.8181818181818" y2="354" stroke="#666666"/>
<text x="333.8181818181818" y="370" text-anchor="middle" font-family="Arial" font-size="12" fill="#555555">41</text>
<line x1="458.18181818181813" y1="348" x2="458.18181818181813" y2="354" stroke="#666666"/>
<text x="458.18181818181813" y="370" text-anchor="middle" font-family="Arial" font-size="12" fill="#555555">60</text>
<line x1="589.0909090909091" y1="348" x2="589.0909090909091" y2="354" stroke="#666666"/>
<text x="589.0909090909091" y="370" text-anchor="middle" font-family="Arial" font-size="12" fill="#555555">80</text>
<line x1="720.0" y1="348" x2="720.0" y2="354" stroke="#666666"/>
<text x="720.0" y="370" text-anchor="middle" font-family="Arial" font-size="12" fill="#555555">100</text>
<line x1="66" y1="348.0" x2="72" y2="348.0" stroke="#666666"/>
<line x1="72" y1="348.0" x2="720" y2="348.0" stroke="#e6e6e6"/>
<text x="62" y="352.0" text-anchor="end" font-family="Arial" font-size="12" fill="#555555">0.0</text>
<line x1="66" y1="292.0" x2="72" y2="292.0" stroke="#666666"/>
<line x1="72" y1="292.0" x2="720" y2="292.0" stroke="#e6e6e6"/>
<text x="62" y="296.0" text-anchor="end" font-family="Arial" font-size="12" fill="#555555">2.4</text>
<line x1="66" y1="236.0" x2="72" y2="236.0" stroke="#666666"/>
<line x1="72" y1="236.0" x2="720" y2="236.0" stroke="#e6e6e6"/>
<text x="62" y="240.0" text-anchor="end" font-family="Arial" font-size="12" fill="#555555">4.8</text>
<line x1="66" y1="180.0" x2="72" y2="180.0" stroke="#666666"/>
<line x1="72" y1="180.0" x2="720" y2="180.0" stroke="#e6e6e6"/>
<text x="62" y="184.0" text-anchor="end" font-family="Arial" font-size="12" fill="#555555">7.2</text>
<line x1="66" y1="124.00000000000003" x2="72" y2="124.00000000000003" stroke="#666666"/>
<line x1="72" y1="124.00000000000003" x2="720" y2="124.00000000000003" stroke="#e6e6e6"/>
<text x="62" y="128.00000000000003" text-anchor="end" font-family="Arial" font-size="12" fill="#555555">9.6</text>
<line x1="66" y1="68.0" x2="72" y2="68.0" stroke="#666666"/>
<line x1="72" y1="68.0" x2="720" y2="68.0" stroke="#e6e6e6"/>
<text x="62" y="72.0" text-anchor="end" font-family="Arial" font-size="12" fill="#555555">12.0</text>
<polyline points="72.0,254.66666666666669 78.54545454545455,208.0 85.0909090909091,219.66666666666669 91.63636363636364,208.0 98.18181818181819,301.3333333333333 104.72727272727272,231.33333333333331 111.27272727272728,254.66666666666669 117.81818181818181,208.0 124.36363636363637,231.33333333333331 130.9090909090909,231.33333333333331 137.45454545454544,231.33333333333331 144.0,196.33333333333334 150.54545454545456,208.0 157.0909090909091,254.66666666666669 163.63636363636363,219.66666666666669 170.1818181818182,173.0 176.72727272727275,254.66666666666669 183.27272727272725,348.0 189.8181818181818,91.33333333333337 196.36363636363637,231.33333333333331 202.9090909090909,196.33333333333334 209.45454545454547,254.66666666666669 216.0,208.0 222.54545454545453,126.33333333333334 229.0909090909091,196.33333333333334 235.63636363636365,208.0 242.1818181818182,231.33333333333331 248.72727272727272,184.66666666666666 255.27272727272725,208.0 261.8181818181818,231.33333333333331 268.3636363636364,231.33333333333331 274.90909090909093,254.66666666666669 281.4545454545455,231.33333333333331 288.0,278.0 294.5454545454545,173.0 301.0909090909091,208.0 307.6363636363636,208.0 314.1818181818182,208.0 320.72727272727275,208.0 327.27272727272725,208.0 333.8181818181818,184.66666666666666 340.3636363636364,208.0 346.90909090909093,231.33333333333331 353.4545454545455,231.33333333333331 360.0,196.33333333333334 366.54545454545456,196.33333333333334 373.09090909090907,208.0 379.6363636363636,231.33333333333331 386.1818181818182,208.0 392.72727272727275,231.33333333333331 399.2727272727273,231.33333333333331 405.8181818181818,161.33333333333334 412.3636363636364,161.33333333333334 418.90909090909093,219.66666666666669 425.45454545454544,208.0 432.0,231.33333333333331 438.5454545454545,173.0 445.0909090909091,208.0 451.6363636363636,184.66666666666666 458.18181818181813,208.0 464.72727272727275,208.0 471.27272727272725,231.33333333333331 477.81818181818187,208.0 484.3636363636364,208.0 490.90909090909093,184.66666666666666 497.45454545454544,208.0 504.0,231.33333333333331 510.54545454545456,184.66666666666666 517.090909090909,289.6666666666667 523.6363636363637,208.0 530.1818181818182,348.0 536.7272727272727,208.0 543.2727272727273,231.33333333333331 549.8181818181818,161.33333333333334 556.3636363636364,208.0 562.9090909090909,184.66666666666666 569.4545454545455,184.66666666666666 576.0,161.33333333333334 582.5454545454545,208.0 589.0909090909091,184.66666666666666 595.6363636363636,196.33333333333334 602.1818181818182,91.33333333333337 608.7272727272727,184.66666666666666 615.2727272727273,184.66666666666666 621.8181818181819,231.33333333333331 628.3636363636364,161.33333333333334 634.909090909091,208.0 641.4545454545455,208.0 648.0,208.0 654.5454545454545,208.0 661.0909090909091,231.33333333333331 667.6363636363636,161.33333333333334 674.1818181818181,208.0 680.7272727272727,184.66666666666666 687.2727272727273,68.0 693.8181818181818,68.0 700.3636363636364,68.0 706.9090909090909,348.0 713.4545454545455,301.3333333333333 720.0,184.66666666666666" fill="none" stroke="#1f77b4" stroke-width="3" stroke-linecap="round"/>
<line x1="728" y1="68" x2="750" y2="68" stroke="#1f77b4" stroke-width="4" stroke-linecap="round"/>
<text x="760" y="73" font-family="Arial" font-size="14" fill="#1f77b4">agent_a (openai:gpt-5.4-nano)</text>
<polyline points="72.0,161.33333333333334 78.54545454545455,208.0 85.0909090909091,196.33333333333334 91.63636363636364,208.0 98.18181818181819,114.66666666666666 104.72727272727272,184.66666666666666 111.27272727272728,161.33333333333334 117.81818181818181,208.0 124.36363636363637,184.66666666666666 130.9090909090909,184.66666666666666 137.45454545454544,184.66666666666666 144.0,219.66666666666669 150.54545454545456,208.0 157.0909090909091,161.33333333333334 163.63636363636363,196.33333333333334 170.1818181818182,243.0 176.72727272727275,161.33333333333334 183.27272727272725,68.0 189.8181818181818,348.0 196.36363636363637,184.66666666666666 202.9090909090909,219.66666666666669 209.45454545454547,161.33333333333334 216.0,208.0 222.54545454545453,289.6666666666667 229.0909090909091,219.66666666666669 235.63636363636365,208.0 242.1818181818182,184.66666666666666 248.72727272727272,231.33333333333331 255.27272727272725,208.0 261.8181818181818,184.66666666666666 268.3636363636364,184.66666666666666 274.90909090909093,161.33333333333334 281.4545454545455,184.66666666666666 288.0,138.0 294.5454545454545,243.0 301.0909090909091,208.0 307.6363636363636,208.0 314.1818181818182,208.0 320.72727272727275,208.0 327.27272727272725,208.0 333.8181818181818,231.33333333333331 340.3636363636364,208.0 346.90909090909093,184.66666666666666 353.4545454545455,184.66666666666666 360.0,219.66666666666669 366.54545454545456,219.66666666666669 373.09090909090907,208.0 379.6363636363636,184.66666666666666 386.1818181818182,208.0 392.72727272727275,348.0 399.2727272727273,184.66666666666666 405.8181818181818,254.66666666666669 412.3636363636364,254.66666666666669 418.90909090909093,196.33333333333334 425.45454545454544,208.0 432.0,184.66666666666666 438.5454545454545,243.0 445.0909090909091,208.0 451.6363636363636,231.33333333333331 458.18181818181813,208.0 464.72727272727275,208.0 471.27272727272725,184.66666666666666 477.81818181818187,208.0 484.3636363636364,208.0 490.90909090909093,231.33333333333331 497.45454545454544,208.0 504.0,184.66666666666666 510.54545454545456,231.33333333333331 517.090909090909,126.33333333333334 523.6363636363637,208.0 530.1818181818182,68.0 536.7272727272727,208.0 543.2727272727273,184.66666666666666 549.8181818181818,254.66666666666669 556.3636363636364,208.0 562.9090909090909,231.33333333333331 569.4545454545455,231.33333333333331 576.0,254.66666666666669 582.5454545454545,208.0 589.0909090909091,231.33333333333331 595.6363636363636,219.66666666666669 602.1818181818182,324.6666666666667 608.7272727272727,231.33333333333331 615.2727272727273,231.33333333333331 621.8181818181819,184.66666666666666 628.3636363636364,254.66666666666669 634.909090909091,208.0 641.4545454545455,208.0 648.0,208.0 654.5454545454545,208.0 661.0909090909091,184.66666666666666 667.6363636363636,254.66666666666669 674.1818181818181,208.0 680.7272727272727,231.33333333333331 687.2727272727273,348.0 693.8181818181818,348.0 700.3636363636364,348.0 706.9090909090909,68.0 713.4545454545455,114.66666666666666 720.0,231.33333333333331" fill="none" stroke="#d62728" stroke-width="3" stroke-linecap="round"/>
<line x1="728" y1="92" x2="750" y2="92" stroke="#d62728" stroke-width="4" stroke-linecap="round"/>
<text x="760" y="97" font-family="Arial" font-size="14" fill="#d62728">agent_b (openai:gpt-5.4-nano)</text>
</svg>