<svg xmlns="http://www.w3.org/2000/svg" width="980" height="420" viewBox="0 0 980 420">
<title>transfer_territory_control scores</title>
<rect width="100%" height="100%" fill="#ffffff"/>
<text x="72" y="34" font-family="Arial" font-size="22" font-weight="bold" fill="#111111">transfer_territory_control scores</text>
<line x1="72" y1="348" x2="720" y2="348" stroke="#444444"/>
<line x1="72" y1="68" x2="72" y2="348" stroke="#444444"/>
<text x="396.0" y="400" text-anchor="middle" font-family="Arial" font-size="14" fill="#333333">Epoch</text>
<text x="24" y="208.0" font-family="Arial" font-size="14" fill="#333333" transform="rotate(-90 24 208.0)">Score</text>
<line x1="72.0" y1="348" x2="72.0" y2="354" stroke="#666666"/>
<text x="72.0" y="370" text-anchor="middle" font-family="Arial" font-size="12" fill="#555555">1</text>
<line x1="202.9090909090909" y1="348" x2="202.9090909090909" y2="354" stroke="#666666"/>
<text x="202.9090909090909" y="370" text-anchor="middle" font-family="Arial" font-size="12" fill="#555555">21</text>
<line x1="333.8181818181818" y1="348" x2="333.8181818181818" y2="354" stroke="#666666"/>
<text x="333.8181818181818" y="370" text-anchor="middle" font-family="Arial" font-size="12" fill="#555555">41</text>
<line x1="458.18181818181813" y1="348" x2="458.18181818181813" y2="354" stroke="#666666"/>
<text x="458.18181818181813" y="370" text-anchor="middle" font-family="Arial" font-size="12" fill="#555555">60</text>
<line x1="589.0909090909091" y1="348" x2="589.0909090909091" y2="354" stroke="#666666"/>
<text x="589.0909090909091" y="370" text-anchor="middle" font-family="Arial" font-size="12" fill="#555555">80</text>
<line x1="720.0" y1="348" x2="720.0" y2="354" stroke="#666666"/>
<text x="720.0" y="370" text-anchor="middle" font-family="Arial" font-size="12" fill="#555555">100</text>
<line x1="66" y1="348.0" x2="72" y2="348.0" stroke="#666666"/>
<line x1="72" y1="348.0" x2="720" y2="348.0" stroke="#e6e6e6"/>
<text x="62" y="352.0" text-anchor="end" font-family="Arial" font-size="12" fill="#555555">0</text>
<line x1="66" y1="292.0" x2="72" y2="292.0" stroke="#666666"/>
<line x1="72" y1="292.0" x2="720" y2="292.0" stroke="#e6e6e6"/>
<text x="62" y="296.0" text-anchor="end" font-family="Arial" font-size="12" fill="#555555">13</text>
<line x1="66" y1="236.0" x2="72" y2="236.0" stroke="#666666"/>
<line x1="72" y1="236.0" x2="720" y2="236.0" stroke="#e6e6e6"/>
<text x="62" y="240.0" text-anchor="end" font-family="Arial" font-size="12" fill="#555555">26</text>
<line x1="66" y1="179.99999999999997" x2="72" y2="179.99999999999997" stroke="#666666"/>
<line x1="72" y1="179.99999999999997" x2="720" y2="179.99999999999997" stroke="#e6e6e6"/>
<text x="62" y="183.99999999999997" text-anchor="end" font-family="Arial" font-size="12" fill="#555555">39</text>
<line x1="66" y1="124.0" x2="72" y2="124.0" stroke="#666666"/>
<line x1="72" y1="124.0" x2="720" y2="124.0" stroke="#e6e6e6"/>
<text x="62" y="128.0" text-anchor="end" font-family="Arial" font-size="12" fill="#555555">52</text>
<line x1="66" y1="68.0" x2="72" y2="68.0" stroke="#666666"/>
<line x1="72" y1="68.0" x2="720" y2="68.0" stroke="#e6e6e6"/>
<text x="62" y="72.0" text-anchor="end" font-family="Arial" font-size="12" fill="#555555">64</text>
<polyline points="72.0,245.984496124031 78.54545454545455,343.6589147286822 85.0909090909091,302.4186046511628 91.63636363636364,263.34883720930236 98.18181818181819,250.32558139534882 104.72727272727272,291.5658914728682 111.27272727272728,315.4418604651163 117.81818181818181,291.5658914728682 124.36363636363637,300.2480620155039 130.9090909090909,232.96124031007753 137.45454545454544,202.5736434108527 144.0,334.9767441860465 150.54545454545456,330.6356589147287 157.0909090909091,148.31007751937983 163.63636363636363,308.93023255813955 170.1818181818182,113.58139534883719 176.72727272727275,339.3178294573643 183.27272727272725,315.4418604651163 189.8181818181818,202.5736434108527 196.36363636363637,68.0 202.9090909090909,109.24031007751938 209.45454545454547,298.07751937984494 216.0,330.6356589147287 222.54545454545453,317.61240310077517 229.0909090909091,230.7906976744186 235.63636363636365,285.05426356589146 242.1818181818182,259.0077519379845 248.72727272727272,330.6356589147287 255.27272727272725,185.20930232558138 261.8181818181818,330.6356589147287 268.3636363636364,196.06201550387598 274.90909090909093,128.77519379844964 281.4545454545455,278.5426356589147 288.0,343.6589147286822 294.5454545454545,133.11627906976744 301.0909090909091,111.41085271317831 307.6363636363636,180.86821705426357 314.1818181818182,326.29457364341084 320.72727272727275,200.4031007751938 327.27272727272725,72.34108527131787 333.8181818181818,98.3875968992248 340.3636363636364,141.79844961240312 346.90909090909093,263.34883720930236 353.4545454545455,313.27131782945736 360.0,298.07751937984494 366.54545454545456,122.26356589147287 373.09090909090907,85.36434108527129 379.6363636363636,326.29457364341084 386.1818181818182,189.5503875968992 392.72727272727275,226.4496124031008 399.2727272727273,135.28682170542635 405.8181818181818,76.68217054263567 412.3636363636364,330.6356589147287 418.90909090909093,211.25581395348837 425.45454545454544,241.64341085271317 432.0,185.20930232558138 438.5454545454545,232.96124031007753 445.0909090909091,230.7906976744186 451.6363636363636,163.50387596899228 458.18181818181813,274.2015503875969 464.72727272727275,94.046511627907 471.27272727272725,141.79844961240312 477.81818181818187,343.6589147286822 484.3636363636364,96.21705426356587 490.90909090909093,222.10852713178292 497.45454545454544,343.6589147286822 504.0,115.75193798449612 510.54545454545456,326.29457364341084 517.090909090909,150.48062015503876 523.6363636363637,315.4418604651163 530.1818181818182,230.7906976744186 536.7272727272727,298.07751937984494 543.2727272727273,326.29457364341084 549.8181818181818,291.5658914728682 556.3636363636364,124.4341085271318 562.9090909090909,302.4186046511628 569.4545454545455,180.86821705426357 576.0,339.3178294573643 582.5454545454545,282.8837209302326 589.0909090909091,148.31007751937983 595.6363636363636,228.6201550387597 602.1818181818182,206.91472868217053 608.7272727272727,334.9767441860465 615.2727272727273,109.24031007751938 621.8181818181819,180.86821705426357 628.3636363636364,291.5658914728682 634.909090909091,298.07751937984494 641.4545454545455,319.7829457364341 648.0,219.93798449612405 654.5454545454545,343.6589147286822 661.0909090909091,306.7596899224806 667.6363636363636,298.07751937984494 674.1818181818181,330.6356589147287 680.7272727272727,111.41085271317831 687.2727272727273,343.6589147286822 693.8181818181818,68.0 700.3636363636364,167.84496124031006 706.9090909090909,285.05426356589146 713.4545454545455,89.70542635658916 720.0,282.8837209302326" fill="none" stroke="#1f77b4" stroke-width="3" stroke-linecap="round"/>
<line x1="728" y1="68" x2="750" y2="68" stroke="#1f77b4" stroke-width="4" stroke-linecap="round"/>
<text x="760" y="73" font-family="Arial" font-size="14" fill="#1f77b4">agent_a (openai:gpt-5.4-nano)</text>
<polyline points="72.0,287.2248062015504 78.54545454545455,241.64341085271317 85.0909090909091,326.29457364341084 91.63636363636364,321.95348837209303 98.18181818181819,339.3178294573643 104.72727272727272,291.5658914728682 111.27272727272728,334.9767441860465 117.81818181818181,215.5968992248062 124.36363636363637,276.37209302325584 130.9090909090909,339.3178294573643 137.45454545454544,317.61240310077517 144.0,334.9767441860465 150.54545454545456,330.6356589147287 157.0909090909091,317.61240310077517 163.63636363636363,102.72868217054264 170.1818181818182,300.2480620155039 176.72727272727275,167.84496124031006 183.27272727272725,334.9767441860465 189.8181818181818,213.42635658914728 196.36363636363637,343.6589147286822 202.9090909090909,304.5891472868217 209.45454545454547,334.9767441860465 216.0,330.6356589147287 222.54545454545453,317.61240310077517 229.0909090909091,193.89147286821705 235.63636363636365,321.95348837209303 242.1818181818182,308.93023255813955 248.72727272727272,330.6356589147287 255.27272727272725,321.95348837209303 261.8181818181818,306.7596899224806 268.3636363636364,308.93023255813955 274.90909090909093,287.2248062015504 281.4545454545455,265.51937984496124 288.0,315.4418604651163 294.5454545454545,330.6356589147287 301.0909090909091,330.6356589147287 307.6363636363636,343.6589147286822 314.1818181818182,306.7596899224806 320.72727272727275,269.8604651162791 327.27272727272725,339.3178294573643 333.8181818181818,313.27131782945736 340.3636363636364,317.61240310077517 346.90909090909093,339.3178294573643 353.4545454545455,241.64341085271317 360.0,334.9767441860465 366.54545454545456,300.2480620155039 373.09090909090907,326.29457364341084 379.6363636363636,137.45736434108528 386.1818181818182,321.95348837209303 392.72727272727275,187.3798449612403 399.2727272727273,278.5426356589147 405.8181818181818,334.9767441860465 412.3636363636364,228.6201550387597 418.90909090909093,308.93023255813955 425.45454545454544,269.8604651162791 432.0,243.81395348837208 438.5454545454545,278.5426356589147 445.0909090909091,198.2325581395349 451.6363636363636,334.9767441860465 458.18181818181813,154.8217054263566 464.72727272727275,317.61240310077517 471.27272727272725,269.8604651162791 477.81818181818187,254.66666666666669 484.3636363636364,317.61240310077517 490.90909090909093,222.10852713178292 497.45454545454544,285.05426356589146 504.0,295.90697674418607 510.54545454545456,85.36434108527129 517.090909090909,282.8837209302326 523.6363636363637,165.67441860465115 530.1818181818182,291.5658914728682 536.7272727272727,326.29457364341084 543.2727272727273,263.34883720930236 549.8181818181818,313.27131782945736 556.3636363636364,287.2248062015504 562.9090909090909,330.6356589147287 569.4545454545455,265.51937984496124 576.0,311.1007751937984 582.5454545454545,282.8837209302326 589.0909090909091,300.2480620155039 595.6363636363636,261.1782945736434 602.1818181818182,330.6356589147287 608.7272727272727,85.36434108527129 615.2727272727273,302.4186046511628 621.8181818181819,300.2480620155039 628.3636363636364,265.51937984496124 634.909090909091,334.9767441860465 641.4545454545455,96.21705426356587 648.0,339.3178294573643 654.5454545454545,302.4186046511628 661.0909090909091,330.6356589147287 667.6363636363636,326.29457364341084 674.1818181818181,311.1007751937984 680.7272727272727,326.29457364341084 687.2727272727273,319.7829457364341 693.8181818181818,343.6589147286822 700.3636363636364,243.81395348837208 706.9090909090909,343.6589147286822 713.4545454545455,321.95348837209303 720.0,243.81395348837208" fill="none" stroke="#d62728" stroke-width="3" stroke-linecap="round"/>
<line x1="728" y1="92" x2="750" y2="92" stroke="#d62728" stroke-width="4" stroke-linecap="round"/>
<text x="760" y="97" font-family="Arial" font-size="14" fill="#d62728">agent_b (curriculum opponent)</text>
</svg>