<svg xmlns="http://www.w3.org/2000/svg" width="980" height="420" viewBox="0 0 980 420">
<title>tsplib_no_replay training gap</title>
<rect width="100%" height="100%" fill="#ffffff"/>
<text x="72" y="34" font-family="Arial" font-size="22" font-weight="bold" fill="#111111">tsplib_no_replay training gap</text>
<line x1="72" y1="348" x2="720" y2="348" stroke="#444444"/>
<line x1="72" y1="68" x2="72" y2="348" stroke="#444444"/>
<text x="396.0" y="400" text-anchor="middle" font-family="Arial" font-size="14" fill="#333333">Epoch</text>
<text x="24" y="208.0" font-family="Arial" font-size="14" fill="#333333" transform="rotate(-90 24 208.0)">Mean optimality gap</text>
<line x1="72.0" y1="348" x2="72.0" y2="354" stroke="#666666"/>
<text x="72.0" y="370" text-anchor="middle" font-family="Arial" font-size="12" fill="#555555">1</text>
<line x1="164.57142857142856" y1="348" x2="164.57142857142856" y2="354" stroke="#666666"/>
<text x="164.57142857142856" y="370" text-anchor="middle" font-family="Arial" font-size="12" fill="#555555">2</text>
<line x1="349.7142857142857" y1="348" x2="349.7142857142857" y2="354" stroke="#666666"/>
<text x="349.7142857142857" y="370" text-anchor="middle" font-family="Arial" font-size="12" fill="#555555">4</text>
<line x1="442.2857142857143" y1="348" x2="442.2857142857143" y2="354" stroke="#666666"/>
<text x="442.2857142857143" y="370" text-anchor="middle" font-family="Arial" font-size="12" fill="#555555">5</text>
<line x1="627.4285714285714" y1="348" x2="627.4285714285714" y2="354" stroke="#666666"/>
<text x="627.4285714285714" y="370" text-anchor="middle" font-family="Arial" font-size="12" fill="#555555">7</text>
<line x1="720.0" y1="348" x2="720.0" y2="354" stroke="#666666"/>
<text x="720.0" y="370" text-anchor="middle" font-family="Arial" font-size="12" fill="#555555">8</text>
<line x1="66" y1="348.0" x2="72" y2="348.0" stroke="#666666"/>
<line x1="72" y1="348.0" x2="720" y2="348.0" stroke="#e6e6e6"/>
<text x="62" y="352.0" text-anchor="end" font-family="Arial" font-size="12" fill="#555555">0.000</text>
<line x1="66" y1="292.0" x2="72" y2="292.0" stroke="#666666"/>
<line x1="72" y1="292.0" x2="720" y2="292.0" stroke="#e6e6e6"/>
<text x="62" y="296.0" text-anchor="end" font-family="Arial" font-size="12" fill="#555555">0.060</text>
<line x1="66" y1="236.0" x2="72" y2="236.0" stroke="#666666"/>
<line x1="72" y1="236.0" x2="720" y2="236.0" stroke="#e6e6e6"/>
<text x="62" y="240.0" text-anchor="end" font-family="Arial" font-size="12" fill="#555555">0.120</text>
<line x1="66" y1="180.0" x2="72" y2="180.0" stroke="#666666"/>
<line x1="72" y1="180.0" x2="720" y2="180.0" stroke="#e6e6e6"/>
<text x="62" y="184.0" text-anchor="end" font-family="Arial" font-size="12" fill="#555555">0.181</text>
<line x1="66" y1="124.0" x2="72" y2="124.0" stroke="#666666"/>
<line x1="72" y1="124.0" x2="720" y2="124.0" stroke="#e6e6e6"/>
<text x="62" y="128.0" text-anchor="end" font-family="Arial" font-size="12" fill="#555555">0.241</text>
<line x1="66" y1="68.0" x2="72" y2="68.0" stroke="#666666"/>
<line x1="72" y1="68.0" x2="720" y2="68.0" stroke="#e6e6e6"/>
<text x="62" y="72.0" text-anchor="end" font-family="Arial" font-size="12" fill="#555555">0.301</text>
<polyline points="72.0,200.7945108119867 164.57142857142856,243.51226996921298 257.1428571428571,107.60066555740431 349.7142857142857,165.22040112786075 442.2857142857143,113.26760123679432 534.8571428571429,88.2062430878675 627.4285714285714,141.1233705633658 720.0,68.0" fill="none" stroke="#1f77b4" stroke-width="3" stroke-linecap="round"/>
<line x1="728" y1="68" x2="750" y2="68" stroke="#1f77b4" stroke-width="4" stroke-linecap="round"/>
<text x="760" y="73" font-family="Arial" font-size="14" fill="#1f77b4">mean_training_gap</text>
</svg>